<?xml version="1.0" encoding="utf-8"?>
<!-- Generator: Adobe Illustrator 26.0.1, SVG Export Plug-In . SVG Version: 6.00 Build 0)  -->
<svg version="1.1" id="圖層_1" xmlns:xodm="http://www.corel.com/coreldraw/odm/2003"
	 xmlns="http://www.w3.org/2000/svg" xmlns:xlink="http://www.w3.org/1999/xlink" x="0px" y="0px" viewBox="0 0 114.7 114.7"
	 style="enable-background:new 0 0 114.7 114.7;" xml:space="preserve">
<style type="text/css">
	.st0{fill-rule:evenodd;clip-rule:evenodd;fill:#FFFFFF;}
</style>
<g>
	<path class="st0" d="M51.9,60.4c-2.1,1.4-3.2,3.1-3.2,5.5c0,4,4.2,6.9,8.3,6.9c4.6,0,7.7-1.3,9.4-3.9c1.7-2.6,2.6-5.7,2.6-9.3
		C64.3,58.4,56.2,57.6,51.9,60.4z"/>
	<path class="st0" d="M90.4,0h-66C11,0,0,11,0,24.4v66c0,13.4,11,24.3,24.4,24.4h66c13.4,0,24.4-11,24.4-24.4v-66
		C114.8,11,103.8,0,90.4,0z M32.9,80.7c4.7,7.6,14.5,12.5,23.6,12.5c8.6,0,15.5-1.5,20.8-6.5c7.2-6.8,8.8-17.6-0.5-24.2
		C73.9,86.7,41,85.3,41,66c0-4,1.6-7.5,4.7-10.5c6.2-5.9,15.5-4.2,23.3-4.3c-0.8-3.7-3.9-9-9.9-9c-4.6,0-8.6,1.2-10.7,4.7L42,42.7
		c2.7-5.1,8.2-8.5,16.6-8.5c8.4,0,16.7,5.5,18,16l0.4,3.2c4.8,1.9,8.2,5.5,10.6,9.1c6.7,10.2,3,23.2-6.6,31.3
		c-5.2,4.6-13,6.8-23.2,6.8c-8.7,0-12.8-1.1-19.4-4.7c-5.8-3.1-10.8-7.3-13.4-13.3c-9.6-21.4-6.7-53.5,13.8-64.1
		c10.4-5.4,26.8-6,37.4-0.6c10.1,5.1,15,13.2,19.1,23.5L87,43.8c-3.8-13.9-13-21.5-27.9-21.5c-5.9,0-11.2,0.6-15.7,2.8
		c-11,5.2-15.4,17.7-15.8,30.4C27.3,64.7,28.8,74,32.9,80.7z"/>
</g>
</svg>
